<svg xmlns="http://www.w3.org/2000/svg" xmlns:xlink="http://www.w3.org/1999/xlink" width="300" zoomAndPan="magnify" viewBox="0 0 224.87999 225" height="300" preserveAspectRatio="xMidYMid meet" version="1.0"><defs><clipPath id="8266038ae8"><path d="M 191.417969 121.902344 L 197.417969 121.902344 L 197.417969 127.898438 L 191.417969 127.898438 Z M 191.417969 121.902344 " clip-rule="nonzero"/></clipPath></defs><path fill="#ff5506" d="M 27.828125 97.054688 L 50.96875 97.054688 C 53.417969 97.054688 55.417969 99.054688 55.417969 101.503906 L 55.417969 124.644531 C 55.417969 127.09375 53.417969 129.09375 50.96875 129.09375 L 47.371094 129.09375 C 47.582031 127.207031 48.144531 127.003906 48.136719 125.730469 C 48.121094 122.867188 46.742188 123.570312 46.871094 118.425781 C 46.9375 116.03125 47.203125 116.402344 47.589844 114.855469 C 47.96875 113.363281 48.394531 110.785156 49.636719 109.503906 C 49.8125 109.324219 50.03125 109.148438 50.191406 108.960938 C 51.675781 107.238281 50.410156 104.359375 49.507812 104.746094 C 49.265625 104.851562 49.191406 105.109375 48.789062 105.035156 C 48.453125 104.972656 48.355469 104.730469 47.96875 104.746094 C 47.902344 105.214844 48.128906 105.960938 47.476562 105.914062 C 47.308594 105.351562 47.675781 104.609375 47.417969 103.238281 C 47.25 102.359375 46.355469 101.085938 45.742188 100.496094 C 45.316406 100.085938 45.265625 100.140625 44.929688 100.570312 C 44.507812 101.125 44.144531 101.722656 43.734375 102.359375 C 42.785156 103.835938 40.4375 107.148438 39.203125 108.210938 C 38.96875 108.414062 38.472656 108.519531 38.074219 108.574219 C 36.972656 108.726562 36.761719 109.027344 36.148438 109.582031 C 35.464844 110.203125 35.246094 110.507812 34.679688 111.097656 C 33.519531 112.324219 33.320312 112.886719 31.28125 113.605469 C 30.554688 113.863281 29.851562 114.136719 29.253906 114.507812 C 28.949219 114.703125 28.601562 114.945312 28.417969 115.160156 C 28.296875 115.296875 28.207031 115.410156 28.078125 115.574219 C 27.457031 116.355469 28.746094 117.191406 29.410156 117.613281 C 29.78125 117.847656 30.957031 118.539062 31.335938 118.667969 C 31.320312 118.976562 30.835938 120.464844 30.699219 121.371094 C 30.539062 122.472656 30.632812 122.886719 30.078125 124.078125 C 29.464844 125.375 28.828125 127.519531 28.570312 129.085938 L 27.828125 129.085938 C 25.378906 129.085938 23.378906 127.085938 23.378906 124.632812 L 23.378906 101.496094 C 23.378906 99.046875 25.378906 97.046875 27.828125 97.046875 Z M 27.828125 97.054688 " fill-opacity="1" fill-rule="evenodd"/><path fill="#ff5506" d="M 61.117188 127.65625 L 68.269531 127.65625 L 68.269531 116.316406 L 79.078125 116.316406 L 79.078125 127.65625 L 86.230469 127.65625 L 86.230469 98.796875 L 79.078125 98.796875 L 79.078125 109.695312 L 68.269531 109.695312 L 68.269531 98.796875 L 61.117188 98.796875 Z M 61.117188 127.65625 " fill-opacity="1" fill-rule="nonzero"/><path fill="#ff5506" d="M 100.363281 127.503906 C 106.804688 127.503906 111.132812 123.753906 111.132812 116.425781 L 111.132812 105.125 L 104.515625 105.125 L 104.515625 116.425781 C 104.515625 119.871094 102.839844 121.328125 100.363281 121.328125 C 97.886719 121.328125 96.210938 119.871094 96.210938 116.425781 L 96.210938 105.125 L 89.59375 105.125 L 89.59375 116.425781 C 89.59375 123.796875 93.921875 127.503906 100.363281 127.503906 Z M 100.363281 127.503906 " fill-opacity="1" fill-rule="nonzero"/><path fill="#ff5506" d="M 113.699219 127.585938 L 120.316406 127.585938 L 120.316406 116.28125 C 120.316406 112.839844 121.992188 111.378906 124.46875 111.378906 C 126.945312 111.378906 128.621094 112.839844 128.621094 116.28125 L 128.621094 127.585938 L 135.238281 127.585938 L 135.238281 116.28125 C 135.238281 108.914062 130.910156 105.203125 124.46875 105.203125 C 118.027344 105.203125 113.699219 108.953125 113.699219 116.28125 Z M 113.699219 127.585938 " fill-opacity="1" fill-rule="nonzero"/><path fill="#ff5506" d="M 146.9375 127.503906 C 152.363281 127.503906 156.074219 124.546875 156.074219 118.320312 L 156.074219 117.660156 L 149.453125 117.660156 L 149.453125 118.320312 C 149.453125 120.621094 148.398438 121.320312 146.9375 121.320312 C 145.480469 121.320312 144.421875 120.613281 144.421875 118.320312 L 144.421875 111.082031 L 154.75 111.082031 L 154.75 105.125 L 144.421875 105.125 L 144.421875 97.402344 L 137.804688 97.402344 L 137.804688 118.320312 C 137.804688 124.546875 141.511719 127.503906 146.9375 127.503906 Z M 146.9375 127.503906 " fill-opacity="1" fill-rule="nonzero"/><path fill="#ff5506" d="M 168.351562 127.503906 C 173.777344 127.503906 177.929688 124.503906 179.339844 120 L 172.496094 120 C 171.65625 121.191406 170.246094 121.585938 168.34375 121.585938 C 165.957031 121.585938 164.015625 120.441406 163.488281 117.878906 L 179.953125 117.878906 L 179.953125 116.023438 C 179.953125 109.40625 175.226562 104.542969 168.34375 104.542969 C 161.457031 104.542969 156.605469 109.398438 156.605469 116.023438 C 156.605469 122.652344 161.457031 127.503906 168.34375 127.503906 Z M 163.636719 113.6875 C 164.296875 111.476562 166.0625 110.460938 168.359375 110.460938 C 170.65625 110.460938 172.421875 111.429688 173.171875 113.6875 Z M 163.636719 113.6875 " fill-opacity="1" fill-rule="nonzero"/><path fill="#ff5506" d="M 181.644531 127.585938 L 188.265625 127.585938 L 188.265625 115.175781 C 188.265625 112.265625 189.585938 111.378906 191.441406 111.378906 C 193.296875 111.378906 194.617188 112.265625 194.617188 115.175781 L 194.617188 115.355469 L 201.238281 115.355469 L 201.238281 115.226562 C 201.195312 108.339844 197.261719 105.203125 191.433594 105.203125 C 185.605469 105.203125 181.628906 108.382812 181.628906 115.175781 L 181.628906 127.585938 Z M 181.644531 127.585938 " fill-opacity="1" fill-rule="nonzero"/><path fill="#ff5506" d="M 194.402344 124.84375 C 194.738281 124.84375 194.960938 124.660156 194.960938 124.320312 C 194.960938 123.984375 194.738281 123.824219 194.394531 123.824219 L 193.859375 123.824219 L 193.859375 124.84375 Z M 193.378906 123.386719 L 194.421875 123.386719 C 195.046875 123.386719 195.445312 123.71875 195.445312 124.3125 C 195.445312 124.761719 195.199219 125.046875 194.84375 125.171875 L 195.527344 126.296875 L 194.96875 126.296875 L 194.351562 125.269531 C 194.347656 125.265625 194.199219 125.269531 194.195312 125.269531 L 193.859375 125.269531 L 193.859375 126.296875 L 193.378906 126.296875 L 193.378906 123.386719 " fill-opacity="1" fill-rule="nonzero"/><g clip-path="url(#8266038ae8)"><path fill="#ff5506" d="M 194.359375 122.40625 C 194.03125 122.40625 193.710938 122.46875 193.410156 122.597656 C 193.121094 122.71875 192.859375 122.894531 192.636719 123.117188 C 192.414062 123.34375 192.238281 123.601562 192.113281 123.890625 C 191.988281 124.191406 191.925781 124.511719 191.925781 124.839844 C 191.925781 125.167969 191.988281 125.488281 192.113281 125.789062 C 192.238281 126.078125 192.414062 126.339844 192.636719 126.5625 C 192.859375 126.785156 193.121094 126.960938 193.410156 127.085938 C 193.710938 127.210938 194.03125 127.273438 194.359375 127.273438 C 194.6875 127.273438 195.007812 127.210938 195.304688 127.085938 C 195.597656 126.960938 195.855469 126.785156 196.082031 126.5625 C 196.304688 126.339844 196.480469 126.078125 196.601562 125.789062 C 196.730469 125.488281 196.792969 125.167969 196.792969 124.839844 C 196.792969 124.511719 196.730469 124.191406 196.601562 123.890625 C 196.480469 123.601562 196.304688 123.34375 196.082031 123.117188 C 195.855469 122.894531 195.597656 122.71875 195.304688 122.597656 C 195.007812 122.46875 194.6875 122.40625 194.359375 122.40625 Z M 194.359375 127.78125 C 193.960938 127.78125 193.578125 127.703125 193.214844 127.546875 C 192.863281 127.402344 192.550781 127.1875 192.28125 126.917969 C 192.011719 126.648438 191.796875 126.335938 191.648438 125.984375 C 191.496094 125.621094 191.417969 125.238281 191.417969 124.839844 C 191.417969 124.445312 191.496094 124.058594 191.648438 123.695312 C 191.796875 123.347656 192.011719 123.03125 192.28125 122.761719 C 192.550781 122.492188 192.863281 122.28125 193.214844 122.132812 C 193.578125 121.976562 193.960938 121.902344 194.359375 121.902344 C 194.753906 121.902344 195.140625 121.976562 195.503906 122.132812 C 195.851562 122.28125 196.167969 122.492188 196.4375 122.761719 C 196.707031 123.03125 196.917969 123.347656 197.066406 123.695312 C 197.222656 124.058594 197.296875 124.445312 197.296875 124.839844 C 197.296875 125.238281 197.222656 125.621094 197.066406 125.984375 C 196.917969 126.335938 196.707031 126.648438 196.4375 126.917969 C 196.167969 127.1875 195.851562 127.402344 195.503906 127.546875 C 195.140625 127.703125 194.753906 127.78125 194.359375 127.78125 " fill-opacity="1" fill-rule="nonzero"/></g></svg>